<svg aria-hidden="true" style="position: absolute; width: 0; height: 0; overflow: hidden;" version="1.1" xmlns="http://www.w3.org/2000/svg" xmlns:xlink="http://www.w3.org/1999/xlink">
<defs>
<symbol id="icon-arrow_left" viewBox="0 0 32 32">
<path d="M20 25c-0.002 0-0.004 0-0.006 0-0.275 0-0.524-0.111-0.704-0.29l-8-8c-0.183-0.181-0.296-0.432-0.296-0.71s0.113-0.529 0.296-0.71l8-8c0.182-0.182 0.433-0.294 0.71-0.294 0.555 0 1.004 0.45 1.004 1.004 0 0.277-0.112 0.528-0.294 0.71v0l-7.3 7.29 7.3 7.29c0.183 0.181 0.296 0.432 0.296 0.71s-0.113 0.529-0.296 0.71l-0 0c-0.181 0.179-0.43 0.29-0.704 0.29-0.002 0-0.004 0-0.006-0h0z"></path>
</symbol>
<symbol id="icon-arrow_bottom" viewBox="0 0 32 32">
<path d="M16 21c-0.002 0-0.004 0-0.006 0-0.275 0-0.524-0.111-0.704-0.29l-8-8c-0.182-0.182-0.294-0.433-0.294-0.71 0-0.555 0.45-1.004 1.004-1.004 0.277 0 0.528 0.112 0.71 0.294v0l7.29 7.3 7.29-7.3c0.182-0.182 0.433-0.294 0.71-0.294 0.555 0 1.004 0.45 1.004 1.004 0 0.277-0.112 0.528-0.294 0.71l-8 8c-0.181 0.179-0.43 0.29-0.704 0.29-0.002 0-0.004 0-0.006-0h0z"></path>
</symbol>
<symbol id="icon-arrow_right" viewBox="0 0 32 32">
<path d="M12 25c-0.002 0-0.004 0-0.006 0-0.275 0-0.524-0.111-0.704-0.29l0 0c-0.183-0.181-0.296-0.432-0.296-0.71s0.113-0.529 0.296-0.71l0-0 7.3-7.29-7.3-7.29c-0.182-0.182-0.294-0.433-0.294-0.71 0-0.555 0.45-1.004 1.004-1.004 0.277 0 0.528 0.112 0.71 0.294l8 8c0.183 0.181 0.296 0.432 0.296 0.71s-0.113 0.529-0.296 0.71l-8 8c-0.181 0.179-0.43 0.29-0.704 0.29-0.002 0-0.004 0-0.006-0h0z"></path>
</symbol>
<symbol id="icon-arrow-top" viewBox="0 0 32 32">
<path d="M24 21c-0.002 0-0.004 0-0.006 0-0.275 0-0.524-0.111-0.704-0.29l0 0-7.29-7.3-7.29 7.3c-0.182 0.182-0.433 0.294-0.71 0.294-0.555 0-1.004-0.45-1.004-1.004 0-0.277 0.112-0.528 0.294-0.71l8-8c0.181-0.183 0.432-0.296 0.71-0.296s0.529 0.113 0.71 0.296l8 8c0.183 0.181 0.296 0.432 0.296 0.71s-0.113 0.529-0.296 0.71l-0 0c-0.181 0.179-0.43 0.29-0.704 0.29-0.002 0-0.004 0-0.006-0h0z"></path>
</symbol>
<symbol id="menu" viewBox="0 0 32 32">
<path d="M6.4 11.733v-2.133h19.2v2.133h-19.2zM6.4 17.067h19.2v-2.133h-19.2v2.133zM6.4 22.4h19.2v-2.133h-19.2v2.133z"></path>
</symbol>
<symbol id="close-menu" viewBox="0 0 32 32">
<path d="M23.733 10.304l-1.504-1.504-5.963 5.963-5.963-5.963-1.504 1.504 5.963 5.963-5.963 5.963 1.504 1.504 5.963-5.963 5.963 5.963 1.504-1.504-5.963-5.963 5.963-5.963z"></path>
</symbol>
</defs>
</svg>
